<?xml version="1.0" encoding="utf-8"?>
<!-- Generator: Adobe Illustrator 24.3.0, SVG Export Plug-In . SVG Version: 6.00 Build 0)  -->
<svg version="1.1" id="Layer_1" xmlns="http://www.w3.org/2000/svg" xmlns:xlink="http://www.w3.org/1999/xlink" x="0px" y="0px"
	 viewBox="0 0 616.5 333.6" style="enable-background:new 0 0 616.5 333.6;" xml:space="preserve">
<style type="text/css">
	.st0{fill:url(#SVGID_1_);}
	.st1{fill:#FFFFFF;}
	.st2{fill:none;stroke:#000000;stroke-miterlimit:10;}
	.st3{fill:#003CFF;}
	.st4{fill:#FA013D;}
	.st5{fill:#2F2F2F;}
	.st6{fill:#EDB90F;}
	.st7{fill:#EDB007;}
	.st8{fill:#E38C09;}
	.st9{fill:#EFA20C;}
	.st10{fill:#070000;}
	.st11{fill:#E02A3F;}
	.st12{fill:#6E6A6B;}
	.st13{font-family:'Calibri-Italic';}
	.st14{font-size:25px;}
	.st15{letter-spacing:1.3;}
	.st16{fill:none;}
	.st17{fill:#01169F;}
</style>
<g>
	<path d="M135.5,203.6V179l-2.6,24.5h-4.6l-2.7-24v24h-6.5v-36.3h9.6c0.3,2.2,0.6,4.8,0.9,7.7l1,9.2l1.7-17l9.7,0v36.4H135.5z"/>
	<path d="M152.8,207.4l1.1,1.1c-3.6,2.8-6.9,6.1-10.8,8.3c-18.6,10-44,2.5-54.5-15.8c-7-12.4-5.3-28,4.2-36.9
		c9.5-8.9,27.4-10.7,38.2-3.7c0.8,0.5,1.5,1.1,2.2,1.7c-4.6-0.2-9.2-1.3-13.6-0.6c-15.6,2.4-22.9,17.8-16,32.9
		c7.9,17.3,27.5,24.1,44.5,15.5C149.7,209.1,151.2,208.2,152.8,207.4z"/>
	<path d="M159.5,198.5c0.2,0.2,0.8,0.3,2,0.3v4.8h-2.9c-1.2,0-2.3,0-3.5-0.3c-0.7-0.2-1.4-0.6-1.8-1.2c-0.5-0.6-0.9-1.3-1-2.1
		c-0.2-1.9-0.2-3.8-0.2-5.7v-15.1h-1.5v-4.7h1.5v-4.7h7.1v4.7h1.9v4.7h-1.9v16C159.2,196.3,159.2,197.4,159.5,198.5z"/>
	<path d="M172.7,189.2v6.4c0,0.9,0,1.8,0.2,2.6c0.1,0.4,0.5,0.6,0.9,0.6c0.5,0,0.9-0.3,1.1-0.8c0.2-1,0.3-2,0.3-3v-3.9h6.7v2.2
		c0,1.4-0.1,2.8-0.3,4.2c-0.2,1.1-0.7,2.2-1.3,3.2c-0.6,1.1-1.5,1.9-2.5,2.5c-1.2,0.6-2.5,0.9-3.9,0.8c-1.4,0-2.8-0.2-4-0.8
		c-1.1-0.5-2-1.3-2.7-2.3c-0.6-1-1.1-2.1-1.3-3.2c-0.3-1.7-0.4-3.4-0.4-5.1v-8.7c-0.1-2.1,0.2-4.2,0.8-6.2c0.5-1.4,1.4-2.6,2.7-3.5
		c1.3-0.8,2.8-1.2,4.3-1.2c1.8-0.1,3.5,0.4,4.9,1.5c1.3,1,2.2,2.3,2.7,3.8c0.6,2.2,0.9,4.5,0.8,6.7l0,4H172.7z"/>
	<path d="M195,204.1c-1.7,0.1-3.4-0.4-4.8-1.3c-1.2-0.9-2.1-2.2-2.5-3.7c-0.6-2.2-0.8-4.5-0.7-6.7v-8.5c-0.1-1.9,0.1-3.9,0.6-5.7
		c0.5-1.4,1.4-2.6,2.6-3.5c1.4-1,3-1.6,4.8-1.5c1.7,0,3.4,0.5,4.8,1.5c1.3,0.9,2.2,2.3,2.6,3.8c0.5,2.1,0.7,4.3,0.7,6.5h-6.7v-3.4
		c0-0.8,0-1.6-0.2-2.4c-0.1-0.4-0.4-0.6-0.8-0.6c-0.4,0-0.7,0.2-0.8,0.6c-0.2,0.8-0.3,1.7-0.2,2.5v14.1c0,0.8,0.1,1.6,0.3,2.4
		c0.2,0.5,0.5,0.8,0.9,0.8c0.5,0,0.9-0.3,1-0.8c0.2-1,0.3-2.1,0.3-3.1v-3.5h6.3c0,2.4-0.1,4.2-0.2,5.3c-0.1,1.3-0.5,2.5-1.2,3.7
		c-0.6,1.2-1.5,2.1-2.6,2.8C197.8,203.8,196.4,204.2,195,204.1z"/>
	<path d="M194.5,148.5c-7,0.8-14.1,0.4-21-1c-3.7-0.8-7.4-1.8-10.9-3.2c-1.2-0.4-2.3-1.1-3.1-2l-0.4-0.1c-0.6-0.2-1-0.8-1-1.5v-1.1
		c-0.1-0.2-0.1-0.5-0.2-0.8c-0.2-2.4-0.2-4.8,0.1-7.2c0-0.9,0-1.8,0.1-2.7v-0.7c0-0.2,0.1-0.4,0.2-0.6c0,0,0,0,0,0
		c0.3-0.9,0.7-1.4,1.6-0.8c1,0.7,2.1,1.4,3.2,2.1c0,0,0,0,0.1,0l10.8,5.4c0,0,0,0,0,0c3,1.1,6.1,1.9,9.3,2.3h8.5
		c0.3,0,0.5-0.1,0.8-0.1c2-0.3,3.9-0.7,5.8-1.3l15-7.6c0.5-0.4,1-0.7,1.5-1.1c0.4-0.4,1-0.4,1.4,0c0.2,0.2,0.3,0.5,0.3,0.8
		c0.1,2.5,0.2,5.1,0.1,7.6c0,1.8-0.1,3.6-0.7,5.1v0.5c0,0.7-0.4,1.3-1.1,1.5l-0.2,0.1c-0.2,0.2-0.3,0.4-0.5,0.5
		c-2.4,2-6.1,2.8-9,3.7C201.6,147.4,198.1,148.1,194.5,148.5z"/>
	<path d="M140.8,108.2c-0.5-0.5-0.6-1.4-0.3-2c0.2-0.4,0.5-0.7,0.8-0.9l0.8-0.4c0.9-0.8,2-1.6,2.9-2c10.8-5.6,21.7-11,32.6-16.3
		c1.9-1,4-1.7,6.1-2c0.7-0.2,1.4-0.2,2-0.2c0.1,0,0.1,0,0.2,0c3.5-0.2,7.1,0.5,10.4,2.2c11.1,5.4,22,11,33.1,16.4
		c3.2,1.5,4.7,3.7,4.6,7.4c-0.2,12.5,0,26.5-0.2,39.1l0,2.2c0,1-0.7,1.9-1.6,2.2c-0.3,0.2-0.6,0.3-0.9,0.4c-3.5,0.3-3.4-2.4-3.4-4.5
		c-0.5-9.8-0.2-21.5-0.2-32.7v-0.1l-0.1-1.8c0-0.9-0.8-1.5-1.6-1.5c-0.2,0-0.5,0.1-0.7,0.2l-10.4,5.3c-5.3,2.9-10.3,5.7-15.6,8.5
		c-2.4,1.3-4.8,2.2-7.1,2.8c0,0-0.1,0-0.1,0c-5.8,1.3-11.5,0.5-17.5-2.7c-9.8-5.2-20-9.9-29.8-15.1
		C143.4,111.7,141.5,109.9,140.8,108.2z"/>
	<path d="M217.5,203.6v-21c0-1.1,0-2.2-0.2-3.3c-0.1-0.4-0.5-0.8-0.9-0.7c-0.4,0-0.8,0.3-0.9,0.8c-0.2,1-0.3,2-0.2,3v21.3h-7.1
		v-36.3h7.1v8.2c0.5-0.7,1.2-1.2,2-1.6c0.7-0.4,1.5-0.5,2.3-0.5c1.2,0,2.3,0.4,3.2,1.2c0.8,0.7,1.4,1.7,1.6,2.8
		c0.2,1.9,0.3,3.8,0.3,5.8v20.6H217.5z"/>
	<polygon points="260.4,203.6 252.7,203.6 256.5,167.2 267.2,167.2 271.4,203.6 263.8,203.6 263.5,197.1 260.8,197.1 	"/>
	<path d="M276.3,183.9c-0.1-1.9,0.1-3.9,0.6-5.7c0.5-1.4,1.4-2.6,2.5-3.5c2.9-2,6.7-2,9.5,0c1.3,0.9,2.2,2.3,2.6,3.8
		c0.5,2.1,0.7,4.3,0.7,6.4h-6.7v-3.4c0-0.8,0-1.6-0.2-2.4c-0.1-0.4-0.4-0.6-0.8-0.6c-0.4,0-0.7,0.2-0.8,0.6
		c-0.2,0.8-0.3,1.7-0.2,2.5v14.1c0,0.8,0.1,1.6,0.3,2.4c0.2,0.5,0.5,0.8,0.9,0.8c0.5,0,0.9-0.3,1-0.8c0.2-1,0.3-2.1,0.3-3.1v-3.5
		h6.3c0,2.4-0.1,4.2-0.2,5.3c-0.1,1.3-0.5,2.5-1.2,3.7c-0.6,1.2-1.5,2.1-2.6,2.8c-1.2,0.7-2.6,1-4,1c-1.7,0.1-3.4-0.4-4.8-1.3
		c-1.2-0.9-2.1-2.2-2.5-3.7c-0.6-2.2-0.8-4.5-0.7-6.7V183.9z"/>
	<path d="M298.6,202.8c-1-0.9-1.6-2.8-1.6-5.9v-2.5c0-2.2,0.3-3.8,0.8-4.5s1.9-1.8,4.1-2.8c2.2-1.1,3.6-2,3.8-2.4
		c0.2-0.8,0.3-1.6,0.2-2.5c0.1-1,0-2-0.3-3c-0.1-0.4-0.5-0.7-0.9-0.7c-0.4-0.1-0.8,0.2-0.9,0.6c-0.2,1-0.2,2.1-0.2,3.1v3.1H297v-2
		c-0.1-1.8,0.2-3.6,0.6-5.3c0.5-1.3,1.4-2.5,2.5-3.3c3.2-2,7.2-1.9,10.3,0.2c1.2,1,2,2.5,2.2,4c0.3,3.2,0.4,6.5,0.4,9.8v15h-6.9V201
		c-0.3,0.9-0.9,1.8-1.7,2.4c-0.7,0.5-1.6,0.8-2.5,0.8C300.8,204.2,299.5,203.7,298.6,202.8z"/>
	<path d="M318.3,181.7c0-1.6,0.1-3.3,0.3-4.9c0.2-1,0.8-1.9,1.6-2.5c0.8-0.7,1.9-1.1,2.9-1.1c0.8,0,1.7,0.2,2.4,0.6
		c0.8,0.5,1.5,1.1,2,1.8v-8.5h7.1v36.4h-7.1v-2.2c-0.6,0.8-1.3,1.5-2.2,2c-0.7,0.4-1.5,0.7-2.4,0.7c-1.1,0-2.1-0.4-2.9-1.1
		c-0.8-0.7-1.3-1.6-1.6-2.6c-0.3-1.6-0.4-3.2-0.3-4.8V181.7z"/>
	<path d="M340.5,197.8c-0.3-1.7-0.4-3.4-0.4-5.1v-8.7c-0.1-2.1,0.2-4.2,0.8-6.2c0.5-1.4,1.4-2.6,2.7-3.5c1.3-0.8,2.8-1.2,4.3-1.2
		c1.8-0.1,3.5,0.4,4.9,1.5c1.3,1,2.2,2.3,2.7,3.8c0.6,2.2,0.9,4.5,0.8,6.7l0,4h-9.2v6.4c0,0.9,0,1.8,0.2,2.6
		c0.1,0.4,0.5,0.6,0.9,0.6c0.5,0,0.9-0.3,1.1-0.8c0.2-1,0.3-2,0.3-3v-3.9h6.7v2.2c0,1.4-0.1,2.8-0.3,4.2c-0.2,1.1-0.7,2.2-1.3,3.2
		c-0.6,1.1-1.5,1.9-2.5,2.5c-1.2,0.6-2.5,0.9-3.9,0.8c-1.4,0-2.8-0.2-4-0.8c-1.1-0.5-2-1.3-2.7-2.3C341.2,200,340.7,199,340.5,197.8
		z"/>
	<path d="M368.7,203.6h-6.9v-29.8h7l-0.1,2.8c0.5-1,1.1-1.9,2-2.5c0.8-0.6,1.7-0.9,2.6-0.8c1.9,0,3.4,1.1,4.5,3.4
		c0.5-1,1.2-1.8,2-2.5c0.7-0.6,1.6-0.8,2.5-0.8c1.1,0,2.2,0.4,3,1.1c0.8,0.7,1.3,1.7,1.5,2.8c0.3,1.8,0.4,3.5,0.3,5.3v21.2h-6.9
		v-19.4c0.1-1.6,0-3.2-0.2-4.7c-0.1-0.6-0.5-0.9-0.9-0.9s-0.8,0.3-1,0.9c-0.2,1.6-0.3,3.2-0.2,4.7v19.4H371v-18.9
		c0-1.8,0-3.5-0.2-5.3c-0.1-0.6-0.4-0.9-0.9-0.9c-0.3,0-0.6,0.2-0.8,0.5c-0.2,0.3-0.4,0.7-0.4,1.1V203.6z"/>
	<rect x="193.8" y="237.8" width="207.8" height="0.5"/>
	<path d="M395.1,198.7l-3.9-24.9h6.5l2.3,20.1l1.1-20.1l6.4,0l-2,21.6c-0.3,3.4-0.6,5.7-0.8,7c-0.2,1.1-0.5,2.1-1.1,3.1
		c-0.5,0.8-1.2,1.4-2.1,1.8c-1.4,0.5-2.8,0.7-4.3,0.6h-4.3V203c0.7,0,1.4,0,2.1-0.2c0.3-0.1,0.5-0.5,0.5-1
		C395.5,201.6,395.4,200.5,395.1,198.7z"/>
	<path d="M418.8,236.1c0-0.1,0-0.2,0-0.3l1.5-9.7c0.1-0.4,0.5-0.7,0.9-0.7c0.1,0,0.3,0.1,0.4,0.2l7.6,7c0.3,0.3,0.3,0.8,0,1.2
		c-0.1,0.1-0.2,0.2-0.4,0.2l-9.1,2.7C419.4,236.8,418.9,236.5,418.8,236.1z"/>
	<path d="M420.9,220.8C420.9,220.8,420.9,220.8,420.9,220.8l4.3-12.9c0.2-0.5,0.6-0.8,1.1-0.8h9c0.5,0,0.9,0.3,1,0.8l1.7,8.2
		c0.1,0.5,0.4,0.8,0.9,0.9l9.8,1.9c0.4,0.1,0.7,0.5,0.7,1v8.7c0,0.5-0.4,1-0.9,1.1l-15.1,3.9c-0.4,0.1-0.9-0.1-1.1-0.4
		c-1.3-2.2-6-9.5-10.7-11C421,221.8,420.7,221.3,420.9,220.8z"/>
	<path d="M430,200.6c0-0.1,0-0.2,0.1-0.3l53.1-54c0.8-0.9,2-1.3,3.2-1.2c3.2,0.2,4.8,1.5,5.6,2.6c0.6,0.9,0.5,2.1-0.3,2.9
		l-54.1,50.2c-0.3,0.3-0.7,0.4-1.1,0.4h-6C430.2,201.1,430,200.9,430,200.6z"/>
	<path d="M505.9,161.4l-54,51.2c-0.4,0.3-0.9,0.5-1.4,0.4l-6.5-1c-0.7-0.1-1.3-0.7-1.4-1.4l-0.9-5.6c-0.1-0.5,0.1-1,0.5-1.4
		l52.1-53.1c0.7-0.7,1.7-0.9,2.6-0.7c4.2,1.4,7.7,4.5,9.5,8.6C506.9,159.4,506.7,160.6,505.9,161.4z"/>
	<path d="M512.2,169.3c0.1,0.4-0.1,0.8-0.4,1.1L455.7,224c-0.2,0.2-0.4,0.2-0.6,0c-0.1-0.1-0.1-0.2-0.1-0.3v-5.8
		c0-0.3,0.1-0.5,0.3-0.7l53.9-53.2C510.8,162.3,511.9,167.4,512.2,169.3z"/>
	<path d="M487.4,143.5c2-0.4,4-0.4,5.9-0.1c6.5,1,10.6,5.3,12.8,7.7c2,2.2,4.6,4.9,5.7,9.3c0.5,1.9,0.6,4,0.5,6
		C508.9,154.7,499.3,145.9,487.4,143.5z"/>
	<path d="M497,139.7c0.2-1.3,0.6-3,2-3.6c1.7-0.6,3.5-0.7,5.3-0.1c3.5,0.9,6.5,3.2,9.2,5.5c8.3,6.7,7,13.2,6,15.9
		c-0.2,0.6-0.8,1-1.5,1h-2.7c-0.6,0-1.2-0.4-1.3-1c-2.2-9-13-14.7-16.2-16.2C497.2,140.9,496.9,140.3,497,139.7z"/>
	<path d="M308.2,0C138,0,0,74.7,0,166.8s138,166.8,308.2,166.8s308.2-74.7,308.2-166.8S478.5,0,308.2,0z M308.2,313.1
		c-149.1,0-270-65.7-270-146.8s120.9-146.8,270-146.8s270,65.7,270,146.8S457.4,313.1,308.2,313.1z"/>
	<g id="Layer_2_1_">
		<g id="Layer_1-2">
			
				<linearGradient id="SVGID_1_" gradientUnits="userSpaceOnUse" x1="207.8368" y1="355.3083" x2="476.6468" y2="-142.9918" gradientTransform="matrix(1 0 0 -1 0 336)">
				<stop  offset="0" style="stop-color:#FFFFFF"/>
				<stop  offset="2.000000e-02" style="stop-color:#F0F1F9"/>
				<stop  offset="7.000000e-02" style="stop-color:#BEC4E7"/>
				<stop  offset="0.13" style="stop-color:#919AD6"/>
				<stop  offset="0.19" style="stop-color:#6A76C7"/>
				<stop  offset="0.26" style="stop-color:#4958BA"/>
				<stop  offset="0.33" style="stop-color:#2E3FB0"/>
				<stop  offset="0.41" style="stop-color:#1A2DA9"/>
				<stop  offset="0.49" style="stop-color:#0B1FA3"/>
				<stop  offset="0.6" style="stop-color:#0317A0"/>
				<stop  offset="0.76" style="stop-color:#00159F"/>
			</linearGradient>
			<path class="st0" d="M308.2,0C138,0,0,74.7,0,166.8s138,166.8,308.2,166.8s308.2-74.7,308.2-166.8S478.5,0,308.2,0z M308.2,313.1
				c-149.1,0-270-65.7-270-146.8s120.9-146.8,270-146.8s270,65.7,270,146.8S457.4,313.1,308.2,313.1z"/>
			<path class="st1" d="M308.2,19.4c-149.1,0-270,65.7-270,146.8s120.9,146.8,270,146.8s270-65.7,270-146.8S457.4,19.4,308.2,19.4z
				 M430.2,200.3l53.1-54c0.8-0.9,2-1.3,3.2-1.2c3.2,0.2,4.8,1.5,5.6,2.6c0.6,0.9,0.5,2.1-0.3,2.9l-54.1,50.2
				c-0.3,0.3-0.7,0.4-1.1,0.4h-6c-0.2,0-0.5-0.2-0.5-0.5C430,200.5,430.1,200.4,430.2,200.3z M361.8,173.8h7l-0.1,2.8
				c0.5-1,1.1-1.9,2-2.5c0.8-0.6,1.7-0.9,2.6-0.8c1.9,0,3.4,1.1,4.5,3.4c0.5-1,1.2-1.8,2-2.5c0.7-0.6,1.6-0.8,2.5-0.8
				c1.1,0,2.2,0.4,3,1.1c0.8,0.7,1.3,1.7,1.5,2.8c0.3,1.8,0.4,3.5,0.3,5.3v21.2h-6.9v-19.4c0.1-1.6,0-3.2-0.2-4.7
				c-0.1-0.6-0.5-0.9-0.9-0.9s-0.8,0.3-1,0.9c-0.2,1.6-0.3,3.2-0.2,4.7v19.4H371v-18.9c0-1.8,0-3.5-0.2-5.3
				c-0.1-0.6-0.4-0.9-0.9-0.9c-0.3,0-0.6,0.2-0.8,0.5c-0.2,0.3-0.4,0.7-0.4,1.1v23.5h-6.9V173.8z M340.1,184.1
				c-0.1-2.1,0.2-4.2,0.8-6.2c0.5-1.4,1.4-2.6,2.7-3.5c1.3-0.8,2.8-1.2,4.3-1.2c1.8-0.1,3.5,0.4,4.9,1.5c1.3,1,2.2,2.3,2.7,3.8
				c0.6,2.2,0.9,4.5,0.8,6.7l0,4h-9.2v6.4c0,0.9,0,1.8,0.2,2.6c0.1,0.4,0.5,0.6,0.9,0.6c0.5,0,0.9-0.3,1.1-0.8c0.2-1,0.3-2,0.3-3
				v-3.9h6.7v2.2c0,1.4-0.1,2.8-0.3,4.2c-0.2,1.1-0.7,2.2-1.3,3.2c-0.6,1.1-1.5,1.9-2.5,2.5c-1.2,0.6-2.5,0.9-3.9,0.8
				c-1.4,0-2.8-0.2-4-0.8c-1.1-0.5-2-1.3-2.7-2.3c-0.6-1-1.1-2.1-1.3-3.2c-0.3-1.7-0.4-3.4-0.4-5.1V184.1z M318.7,176.9
				c0.2-1,0.8-1.9,1.6-2.5c0.8-0.7,1.9-1.1,2.9-1.1c0.8,0,1.7,0.2,2.4,0.6c0.8,0.5,1.5,1.1,2,1.8v-8.5h7.1v36.4h-7.1v-2.2
				c-0.6,0.8-1.3,1.5-2.2,2c-0.7,0.4-1.5,0.7-2.4,0.7c-1.1,0-2.1-0.4-2.9-1.1c-0.8-0.7-1.3-1.6-1.6-2.6c-0.3-1.6-0.4-3.2-0.3-4.8
				v-13.9C318.3,180.1,318.4,178.5,318.7,176.9z M297,194.5c0-2.2,0.3-3.8,0.8-4.5s1.9-1.8,4.1-2.8c2.2-1.1,3.6-2,3.8-2.4
				c0.2-0.8,0.3-1.6,0.2-2.5c0.1-1,0-2-0.3-3c-0.1-0.4-0.5-0.7-0.9-0.7c-0.4-0.1-0.8,0.2-0.9,0.6c-0.2,1-0.2,2.1-0.2,3.1v3.1H297v-2
				c-0.1-1.8,0.2-3.6,0.6-5.3c0.5-1.3,1.4-2.5,2.5-3.3c3.2-2,7.2-1.9,10.3,0.2c1.2,1,2,2.5,2.2,4c0.3,3.2,0.4,6.5,0.4,9.8v15h-6.9
				V201c-0.3,0.9-0.9,1.8-1.7,2.4c-0.7,0.5-1.6,0.8-2.5,0.8c-1.3,0-2.5-0.5-3.4-1.3c-1-0.9-1.6-2.8-1.6-5.9V194.5z M276.9,178.2
				c0.5-1.4,1.4-2.6,2.5-3.5c2.9-2,6.7-2,9.5,0c1.3,0.9,2.2,2.3,2.6,3.8c0.5,2.1,0.7,4.3,0.7,6.4h-6.7v-3.4c0-0.8,0-1.6-0.2-2.4
				c-0.1-0.4-0.4-0.6-0.8-0.6c-0.4,0-0.7,0.2-0.8,0.6c-0.2,0.8-0.3,1.7-0.2,2.5v14.1c0,0.8,0.1,1.6,0.3,2.4c0.2,0.5,0.5,0.8,0.9,0.8
				c0.5,0,0.9-0.3,1-0.8c0.2-1,0.3-2.1,0.3-3.1v-3.5h6.3c0,2.4-0.1,4.2-0.2,5.3c-0.1,1.3-0.5,2.5-1.2,3.7c-0.6,1.2-1.5,2.1-2.6,2.8
				c-1.2,0.7-2.6,1-4,1c-1.7,0.1-3.4-0.4-4.8-1.3c-1.2-0.9-2.1-2.2-2.5-3.7c-0.6-2.2-0.8-4.5-0.7-6.7v-8.5
				C276.2,182,276.4,180.1,276.9,178.2z M256.5,167.2h10.7l4.2,36.4h-7.6l-0.4-6.5h-2.7l-0.4,6.5h-7.7L256.5,167.2z M140.5,106.2
				c0.2-0.4,0.5-0.7,0.8-0.9l0.8-0.4c0.9-0.8,2-1.6,2.9-2c10.8-5.6,21.7-11,32.6-16.3c1.9-1,4-1.7,6.1-2c0.7-0.2,1.4-0.2,2-0.2
				c0.1,0,0.1,0,0.2,0c3.5-0.2,7.1,0.5,10.4,2.2c11.1,5.4,22,11,33.1,16.4c3.2,1.5,4.7,3.7,4.6,7.4c-0.2,12.5,0,26.5-0.2,39.1l0,2.2
				c0,1-0.7,1.9-1.6,2.2c-0.3,0.2-0.6,0.3-0.9,0.4c-3.5,0.3-3.4-2.4-3.4-4.5c-0.5-9.8-0.2-21.5-0.2-32.7v-0.1l-0.1-1.8
				c0-0.9-0.8-1.5-1.6-1.5c-0.2,0-0.5,0.1-0.7,0.2l-10.4,5.3c-5.3,2.9-10.3,5.7-15.6,8.5c-0.3,0.2-0.7,0.4-1,0.5
				c-0.3,0.2-0.7,0.3-1,0.5c-0.4,0.2-0.9,0.4-1.3,0.5c-0.4,0.2-0.8,0.3-1.2,0.5c-0.5,0.2-0.9,0.3-1.4,0.4c-0.2,0.1-0.5,0.1-0.7,0.2
				c0,0,0,0,0,0c-0.2,0-0.3,0.1-0.5,0.1c0,0,0,0-0.1,0c0,0-0.1,0-0.1,0c-0.1,0-0.2,0-0.3,0.1c-0.3,0.1-0.7,0.1-1,0.2
				c-0.4,0.1-0.9,0.1-1.3,0.2c-0.4,0.1-0.9,0.1-1.3,0.1c-0.4,0-0.9,0-1.3,0c0,0,0,0,0,0c-0.3,0-0.6,0-0.9,0c-0.3,0-0.5,0-0.8,0
				c-0.3,0-0.7-0.1-1.1-0.1c-0.3,0-0.6-0.1-1-0.1c-0.4-0.1-0.7-0.1-1.1-0.2c-0.9-0.2-1.8-0.4-2.7-0.8c-0.4-0.1-0.9-0.3-1.3-0.5
				c-0.2-0.1-0.3-0.1-0.5-0.2c-0.9-0.4-1.9-0.8-2.8-1.3c-9.8-5.2-20-9.9-29.8-15.1c-1.7-0.9-3.7-2.6-4.4-4.3
				C140.3,107.7,140.2,106.8,140.5,106.2z M217.2,179.2c-0.1-0.4-0.5-0.8-0.9-0.7c-0.4,0-0.8,0.3-0.9,0.8c-0.2,1-0.3,2-0.2,3v21.3
				h-7.1v-36.3h7.1v8.2c0.5-0.7,1.2-1.2,2-1.6c0.7-0.4,1.5-0.5,2.3-0.5c1.2,0,2.3,0.4,3.2,1.2c0.8,0.7,1.4,1.7,1.6,2.8
				c0.2,1.9,0.3,3.8,0.3,5.8v20.6h-7.1v-21C217.5,181.5,217.4,180.3,217.2,179.2z M132.9,203.5h-4.6l-2.7-24v24h-6.5v-36.3h9.6
				c0.3,2.2,0.6,4.8,0.9,7.7l1,9.2l1.7-17l9.7,0v36.4h-6.5V179L132.9,203.5z M143.1,216.8c-18.6,10-44,2.5-54.5-15.8
				c-7-12.4-5.3-28,4.2-36.9c9.5-8.9,27.4-10.7,38.2-3.7c0.8,0.5,1.5,1.1,2.2,1.7c-4.6-0.2-9.2-1.3-13.6-0.6
				c-15.6,2.4-22.9,17.8-16,32.9c7.9,17.3,27.5,24.1,44.5,15.5c1.6-0.8,3.2-1.7,4.8-2.6l1.1,1.1C150.3,211.3,147,214.7,143.1,216.8z
				 M161.5,203.6h-2.9c-1.2,0-2.3,0-3.5-0.3c-0.7-0.2-1.4-0.6-1.8-1.2c-0.5-0.6-0.9-1.3-1-2.1c-0.2-1.9-0.2-3.8-0.2-5.7v-15.1h-1.5
				v-4.7h1.5v-4.7h7.1v4.7h1.9v4.7h-1.9v16c-0.1,1.1,0,2.2,0.2,3.3c0.2,0.2,0.8,0.3,2,0.3V203.6z M172.9,198.3
				c0.1,0.4,0.5,0.6,0.9,0.6c0.5,0,0.9-0.3,1.1-0.8c0.2-1,0.3-2,0.3-3v-3.9h6.7v2.2c0,1.4-0.1,2.8-0.3,4.2c-0.2,1.1-0.7,2.2-1.3,3.2
				c-0.6,1.1-1.5,1.9-2.5,2.5c-1.2,0.6-2.5,0.9-3.9,0.8c-1.4,0-2.8-0.2-4-0.8c-1.1-0.5-2-1.3-2.7-2.3c-0.6-1-1.1-2.1-1.3-3.2
				c-0.3-1.7-0.4-3.4-0.4-5.1v-8.7c-0.1-2.1,0.2-4.2,0.8-6.2c0.5-1.4,1.4-2.6,2.7-3.5c1.3-0.8,2.8-1.2,4.3-1.2
				c1.8-0.1,3.5,0.4,4.9,1.5c1.3,1,2.2,2.3,2.7,3.8c0.6,2.2,0.9,4.5,0.8,6.7l0,4h-9.2v6.4C172.6,196.5,172.7,197.4,172.9,198.3z
				 M173.5,147.5c-3.7-0.8-7.4-1.8-10.9-3.2c-1.2-0.4-2.3-1.1-3.1-2l-0.4-0.1c-0.6-0.2-1-0.8-1-1.5v-1.1c-0.1-0.2-0.1-0.5-0.2-0.8
				c-0.2-2.4-0.2-4.8,0.1-7.2c0-0.9,0-1.8,0.1-2.7v-0.7c0-0.2,0.1-0.4,0.2-0.6c0,0,0,0,0,0c0.3-0.9,0.7-1.4,1.6-0.8
				c1,0.7,2.1,1.4,3.2,2.1c0,0,0,0,0.1,0l10.8,5.4c0,0,0,0,0,0c3,1.1,6.1,1.9,9.3,2.3h8.5c0.3,0,0.5-0.1,0.8-0.1
				c2-0.3,3.9-0.7,5.8-1.3l15-7.6c0.5-0.4,1-0.7,1.5-1.1c0.4-0.4,1-0.4,1.4,0c0.2,0.2,0.3,0.5,0.3,0.8c0.1,2.5,0.2,5.1,0.1,7.6
				c0,1.8-0.1,3.6-0.7,5.1v0.5c0,0.7-0.4,1.3-1.1,1.5l-0.2,0.1c-0.2,0.2-0.3,0.4-0.5,0.5c-2.4,2-6.1,2.8-9,3.7
				c-3.4,0.9-7,1.6-10.5,2C187.5,149.2,180.4,148.9,173.5,147.5z M187.8,199.1c-0.6-2.2-0.8-4.5-0.7-6.7v-8.5
				c-0.1-1.9,0.1-3.9,0.6-5.7c0.5-1.4,1.4-2.6,2.6-3.5c1.4-1,3-1.6,4.8-1.5c1.7,0,3.4,0.5,4.8,1.5c1.3,0.9,2.2,2.3,2.6,3.8
				c0.5,2.1,0.7,4.3,0.7,6.5h-6.7v-3.4c0-0.8,0-1.6-0.2-2.4c-0.1-0.4-0.4-0.6-0.8-0.6c-0.4,0-0.7,0.2-0.8,0.6
				c-0.2,0.8-0.3,1.7-0.2,2.5v14.1c0,0.8,0.1,1.6,0.3,2.4c0.2,0.5,0.5,0.8,0.9,0.8c0.5,0,0.9-0.3,1-0.8c0.2-1,0.3-2.1,0.3-3.1v-3.5
				h6.3c0,2.4-0.1,4.2-0.2,5.3c-0.1,1.3-0.5,2.5-1.2,3.7c-0.6,1.2-1.5,2.1-2.6,2.8c-1.2,0.7-2.6,1-4,1c-1.7,0.1-3.4-0.4-4.8-1.3
				C189,201.9,188.2,200.6,187.8,199.1z M401.7,238.3H193.8v-0.5h207.8V238.3z M405.5,195.3c-0.3,3.4-0.6,5.7-0.8,7
				c-0.2,1.1-0.5,2.1-1.1,3.1c-0.5,0.8-1.2,1.4-2.1,1.8c-1.4,0.5-2.8,0.7-4.3,0.6h-4.3V203c0.7,0,1.4,0,2.1-0.2
				c0.3-0.1,0.5-0.5,0.5-1c0-0.2-0.1-1.3-0.4-3.1l-3.9-24.9h6.5l2.3,20.1l1.1-20.1l6.4,0L405.5,195.3z M429.3,233.8
				c-0.1,0.1-0.2,0.2-0.4,0.2l-9.1,2.7c-0.4,0.1-0.9-0.1-1-0.6c0-0.1,0-0.2,0-0.3l1.5-9.7c0.1-0.4,0.5-0.7,0.9-0.7
				c0.1,0,0.3,0.1,0.4,0.2l7.6,7C429.6,232.9,429.6,233.5,429.3,233.8z M449.4,228.4c0,0.5-0.4,1-0.9,1.1l-15.1,3.9
				c-0.4,0.1-0.9-0.1-1.1-0.4c-1.3-2.2-6-9.5-10.7-11c-0.5-0.2-0.8-0.7-0.7-1.2c0,0,0,0,0,0l4.2-12.9c0.2-0.5,0.6-0.8,1.1-0.8h9
				c0.5,0,0.9,0.3,1,0.8l1.7,8.2c0.1,0.5,0.4,0.8,0.9,0.9l9.8,1.9c0.4,0.1,0.7,0.5,0.7,1V228.4z M450.5,213l-6.5-1
				c-0.7-0.1-1.3-0.7-1.4-1.4l-0.9-5.6c-0.1-0.5,0.1-1,0.5-1.4l52.1-53.1c0.7-0.7,1.7-0.9,2.6-0.7c4.2,1.4,7.7,4.5,9.5,8.6
				c0.5,1,0.2,2.2-0.6,2.9l-54,51.2C451.5,212.9,451,213.1,450.5,213z M511.9,170.4L455.7,224c-0.2,0.2-0.4,0.2-0.6,0
				c-0.1-0.1-0.1-0.2-0.1-0.3v-5.8c0-0.3,0.1-0.5,0.3-0.7l53.9-53.2c1.7-1.7,2.8,3.4,3.1,5.3C512.3,169.7,512.2,170.1,511.9,170.4z
				 M512.4,166.3c-3.5-11.6-13-20.4-24.9-22.9c2-0.4,4-0.4,5.9-0.1c6.5,1,10.6,5.3,12.8,7.7c2,2.2,4.6,4.9,5.7,9.3
				C512.4,162.3,512.5,164.3,512.4,166.3z M519.5,157.4c-0.2,0.6-0.8,1-1.5,1h-2.7c-0.6,0-1.2-0.4-1.3-1c-2.2-9-13-14.7-16.2-16.2
				c-0.5-0.3-0.9-0.9-0.8-1.5c0.2-1.3,0.6-3,2-3.6c1.7-0.6,3.5-0.7,5.3-0.1c3.5,0.9,6.5,3.2,9.2,5.5
				C521.8,148.2,520.4,154.7,519.5,157.4z"/>
			<path class="st2" d="M234.1,151.5c0,1-0.7,1.9-1.6,2.2c-0.2,0-0.4,0.1-0.6,0.1h-0.4c-1.2,0-2.2-1-2.2-2.2L228,117v-0.1l-0.1-1.8
				c0-0.9-0.8-1.5-1.6-1.5c-0.2,0-0.5,0.1-0.7,0.2l-10.4,5.3l-20.6,10.5c-1.4,0.7-2.9,1.1-4.5,1l-4-0.1l-4-1l-40.8-20.7
				c-0.2-0.1-0.4-0.3-0.6-0.4c-0.5-0.5-0.6-1.4-0.3-2c0.2-0.4,0.5-0.7,0.8-0.9l0.8-0.4l41.2-20.3c0.2,0,0.3-0.1,0.5-0.1
				c0.7-0.2,1.4-0.2,2-0.2c0.1,0,0.1,0,0.2,0c0.8,0,1.6,0.1,2.3,0.3l42.2,19.8c1.5,0.7,2.5,2.2,2.5,3.8l1,41.2L234.1,151.5z"/>
			<path class="st2" d="M215.9,128.3v12.4c0,0.7-0.4,1.3-1.1,1.5l-0.2,0.1l-14.2,4.9c-1.6,0.6-3.4,0.9-5.1,0.9h-17
				c-1.8,0-3.5-0.3-5.2-0.9l-13.6-4.9l-0.4-0.1c-0.6-0.2-1-0.8-1-1.5v-12.4c0-0.2,0.1-0.4,0.2-0.6c0.2-0.3,0.6-0.5,1-0.5
				c0.2,0,0.3,0,0.4,0.1l3.4,1.7c0,0,0,0,0.1,0l10.8,5.4c0,0,0,0,0,0l3,1.5c1,0.5,2.1,0.8,3.3,0.8h13.6c1.1,0,2.3-0.3,3.3-0.8
				l1.2-0.6l15-7.6l1-0.5c0.5-0.3,1.2-0.1,1.5,0.5C215.8,127.9,215.9,128.1,215.9,128.3z"/>
			<path class="st3" d="M142,167.2v36.4h-6.5V179l-2.6,24.5h-4.6l-2.7-24v24h-6.5v-36.3h9.6c0.3,2.2,0.6,4.8,0.9,7.7l1,9.2l1.7-17
				L142,167.2z"/>
			<path class="st4" d="M161.5,198.8v4.8h-2.9c-1.2,0-2.3,0-3.5-0.3c-0.7-0.2-1.4-0.6-1.8-1.2c-0.5-0.6-0.9-1.3-1-2.1
				c-0.2-1.9-0.2-3.8-0.2-5.7v-15.1h-1.5v-4.7h1.5v-4.7h7.1v4.7h1.9v4.7h-1.9v16c-0.1,1.1,0,2.2,0.2,3.3
				C159.7,198.7,160.3,198.8,161.5,198.8z"/>
			<path class="st4" d="M175.1,195.1c0,1,0,2-0.3,3c-0.1,0.5-0.6,0.8-1.1,0.8c-0.4,0-0.8-0.2-0.9-0.6c-0.2-0.9-0.3-1.7-0.2-2.6v-6.4
				h9.2l0-4c0.1-2.3-0.2-4.5-0.8-6.7c-0.5-1.5-1.4-2.9-2.7-3.8c-1.4-1-3.2-1.5-4.9-1.5c-1.5,0-3,0.4-4.3,1.2c-1.3,0.8-2.2,2-2.7,3.5
				c-0.6,2-0.9,4.1-0.8,6.2v8.7c0,1.7,0.1,3.4,0.4,5.1c0.2,1.1,0.7,2.2,1.3,3.2c0.7,1,1.6,1.8,2.7,2.3c1.2,0.6,2.6,0.9,4,0.8
				c1.3,0,2.7-0.2,3.9-0.8c1.1-0.6,1.9-1.5,2.5-2.5c0.6-1,1-2,1.3-3.2c0.2-1.4,0.3-2.8,0.3-4.2v-2.2h-6.7V195.1z M172.7,182.2
				c0-1,0-2.1,0.2-3.1c0.1-0.4,0.5-0.6,0.9-0.6c0.4,0,0.7,0.3,0.8,0.7c0.2,1,0.2,2,0.2,3v2.2l-2.1,0V182.2z"/>
			<path class="st4" d="M196.7,191.3h6.3c0,2.4-0.1,4.2-0.2,5.3c-0.1,1.3-0.5,2.5-1.2,3.7c-0.6,1.2-1.5,2.1-2.6,2.8
				c-1.2,0.7-2.6,1-4,1c-1.7,0.1-3.4-0.4-4.8-1.3c-1.2-0.9-2.1-2.2-2.5-3.7c-0.6-2.2-0.8-4.5-0.7-6.7v-8.5c-0.1-1.9,0.1-3.9,0.6-5.7
				c0.5-1.4,1.4-2.6,2.6-3.5c1.4-1,3-1.6,4.8-1.5c1.7,0,3.4,0.5,4.8,1.5c1.3,0.9,2.2,2.3,2.6,3.8c0.5,2.1,0.7,4.3,0.7,6.5h-6.7v-3.4
				c0-0.8,0-1.6-0.2-2.4c-0.1-0.4-0.4-0.6-0.8-0.6c-0.4,0-0.7,0.2-0.8,0.6c-0.2,0.8-0.3,1.7-0.2,2.5v14.1c0,0.8,0.1,1.6,0.3,2.4
				c0.2,0.5,0.5,0.8,0.9,0.8c0.5,0,0.9-0.3,1-0.8c0.2-1,0.3-2.1,0.3-3.1V191.3z"/>
			<path class="st4" d="M224.6,183v20.6h-7.1v-21c0-1.1,0-2.2-0.2-3.3c-0.1-0.4-0.5-0.8-0.9-0.7c-0.4,0-0.8,0.3-0.9,0.8
				c-0.2,1-0.3,2-0.2,3v21.3h-7.1v-36.3h7.1v8.2c0.5-0.7,1.2-1.2,2-1.6c0.7-0.4,1.5-0.5,2.3-0.5c1.2,0,2.3,0.4,3.2,1.2
				c0.8,0.7,1.4,1.7,1.6,2.8C224.5,179.2,224.6,181.1,224.6,183z"/>
			<path class="st3" d="M267.2,167.2h-10.7l-3.8,36.4h7.7l0.4-6.5h2.7l0.4,6.5h7.6L267.2,167.2z M260.7,190.6
				c0.2-3.2,0.7-8.3,1.4-15.3c0.4,6.1,0.8,11.1,1.1,15.3H260.7z"/>
			<path class="st4" d="M292.3,191.3c0,2.4-0.1,4.2-0.2,5.3c-0.1,1.3-0.5,2.5-1.2,3.7c-0.6,1.2-1.5,2.1-2.6,2.8c-1.2,0.7-2.6,1-4,1
				c-1.7,0.1-3.4-0.4-4.8-1.3c-1.2-0.9-2.1-2.2-2.5-3.7c-0.6-2.2-0.8-4.5-0.7-6.7v-8.5c-0.1-1.9,0.1-3.9,0.6-5.7
				c0.5-1.4,1.4-2.6,2.5-3.5c2.9-2,6.7-2,9.5,0c1.3,0.9,2.2,2.3,2.6,3.8c0.5,2.1,0.7,4.3,0.7,6.4h-6.7v-3.4c0-0.8,0-1.6-0.2-2.4
				c-0.1-0.4-0.4-0.6-0.8-0.6c-0.4,0-0.7,0.2-0.8,0.6c-0.2,0.8-0.3,1.7-0.2,2.5v14.1c0,0.8,0.1,1.6,0.3,2.4c0.2,0.5,0.5,0.8,0.9,0.8
				c0.5,0,0.9-0.3,1-0.8c0.2-1,0.3-2.1,0.3-3.1v-3.5H292.3z"/>
			<path class="st4" d="M312.7,178.9c-0.2-1.5-1-3-2.2-4c-3.1-2.1-7.2-2.2-10.3-0.2c-1.1,0.8-2,2-2.5,3.3c-0.5,1.7-0.7,3.5-0.6,5.3
				v2h6.7v-3.1c0-1,0-2.1,0.2-3.1c0.1-0.4,0.5-0.6,0.9-0.6c0.4,0,0.8,0.3,0.9,0.7c0.2,1,0.3,2,0.3,3c0.1,0.8,0,1.7-0.2,2.5
				c-0.2,0.4-1.6,1.3-3.8,2.4c-2.2,1.1-3.5,2-4.1,2.8s-0.8,2.3-0.8,4.5v2.5c0,3,0.5,5,1.6,5.9c0.9,0.8,2.2,1.3,3.4,1.3
				c0.9,0,1.8-0.3,2.5-0.8c0.8-0.6,1.3-1.5,1.7-2.4v2.7h6.9v-15C313.2,185.4,313,182.1,312.7,178.9z M306,195.6
				c0.1,0.9,0,1.9-0.2,2.8c-0.1,0.4-0.5,0.6-0.9,0.5c-0.4,0-0.8-0.2-0.9-0.7c-0.2-1-0.3-2-0.2-3c0-1,0.1-2.1,0.3-3.1
				c0.4-1.1,1.1-2,2-2.7L306,195.6z"/>
			<path class="st4" d="M327.6,167.2v8.5c-0.5-0.7-1.2-1.4-2-1.8c-0.7-0.4-1.6-0.6-2.4-0.6c-1.1,0-2.1,0.4-2.9,1.1
				c-0.8,0.6-1.3,1.5-1.6,2.5c-0.3,1.6-0.4,3.2-0.3,4.9v13.9c0,1.6,0.1,3.2,0.3,4.8c0.2,1,0.8,1.9,1.6,2.6c0.8,0.7,1.8,1.1,2.9,1.1
				c0.8,0,1.7-0.2,2.4-0.7c0.8-0.5,1.6-1.2,2.2-2v2.2h7.1v-36.4H327.6z M327.6,195.1c0,1,0,2.1-0.2,3.1c-0.1,0.4-0.5,0.7-0.9,0.6
				c-0.4,0-0.7-0.2-0.8-0.6c-0.2-0.8-0.3-1.6-0.2-2.4v-14.6c0-0.8,0-1.5,0.2-2.3c0.1-0.2,0.2-0.3,0.4-0.4c0.5-0.3,1.1-0.1,1.3,0.4
				c0.2,0.7,0.3,1.5,0.2,2.2V195.1z"/>
			<path class="st4" d="M349.7,195.1c0,1,0,2-0.3,3c-0.1,0.5-0.6,0.8-1.1,0.8c-0.4,0-0.8-0.2-0.9-0.6c-0.2-0.9-0.3-1.7-0.2-2.6v-6.4
				h9.2l0-4c0.1-2.3-0.2-4.5-0.8-6.7c-0.5-1.5-1.4-2.9-2.7-3.8c-1.4-1-3.2-1.5-4.9-1.5c-1.5,0-3,0.4-4.3,1.2c-1.3,0.8-2.2,2-2.7,3.5
				c-0.6,2-0.9,4.1-0.8,6.2v8.7c0,1.7,0.1,3.4,0.4,5.1c0.2,1.1,0.7,2.2,1.3,3.2c0.7,1,1.6,1.8,2.7,2.3c1.2,0.6,2.6,0.9,4,0.8
				c1.3,0,2.7-0.2,3.9-0.8c1.1-0.6,1.9-1.5,2.5-2.5c0.6-1,1-2,1.3-3.2c0.2-1.4,0.3-2.8,0.3-4.2v-2.2h-6.7V195.1z M347.2,182.2
				c0-1,0-2.1,0.2-3.1c0.1-0.4,0.5-0.6,0.9-0.6c0.4,0,0.7,0.3,0.8,0.7c0.2,1,0.2,2,0.2,3v2.2l-2.1,0V182.2z"/>
			<path class="st4" d="M387.1,182.4v21.2h-6.9v-19.4c0.1-1.6,0-3.2-0.2-4.7c-0.1-0.6-0.5-0.9-0.9-0.9s-0.8,0.3-1,0.9
				c-0.2,1.6-0.3,3.2-0.2,4.7v19.4H371v-18.9c0-1.8,0-3.5-0.2-5.3c-0.1-0.6-0.4-0.9-0.9-0.9c-0.3,0-0.6,0.2-0.8,0.5
				c-0.2,0.3-0.4,0.7-0.4,1.1v23.5h-6.9v-29.8h7l-0.1,2.8c0.5-1,1.1-1.9,2-2.5c0.8-0.6,1.7-0.9,2.6-0.8c1.9,0,3.4,1.1,4.5,3.4
				c0.5-1,1.2-1.8,2-2.5c0.7-0.6,1.6-0.8,2.5-0.8c1.1,0,2.2,0.4,3,1.1c0.8,0.7,1.3,1.7,1.5,2.8C387.1,178.9,387.2,180.6,387.1,182.4
				z"/>
			<path class="st4" d="M407.5,173.8l-2,21.6c-0.3,3.4-0.6,5.7-0.8,7c-0.2,1.1-0.5,2.1-1.1,3.1c-0.5,0.8-1.2,1.4-2.1,1.8
				c-1.4,0.5-2.8,0.7-4.3,0.6h-4.3V203c0.7,0,1.4,0,2.1-0.2c0.3-0.1,0.5-0.5,0.5-1c0-0.2-0.1-1.3-0.4-3.1l-3.9-24.9h6.5l2.3,20.1
				l1.1-20.1L407.5,173.8z"/>
			<path class="st4" d="M153.9,208.5c-3.6,2.8-6.9,6.1-10.8,8.3c-18.6,10-44,2.5-54.5-15.8c-7-12.4-5.3-28,4.2-36.9
				c9.5-8.9,27.4-10.7,38.2-3.7c0.8,0.5,1.5,1.1,2.2,1.7c-4.6-0.2-9.2-1.3-13.6-0.6c-15.6,2.4-22.9,17.8-16,32.9
				c7.9,17.3,27.5,24.1,44.5,15.5c1.6-0.8,3.2-1.7,4.8-2.6L153.9,208.5z"/>
			<path class="st5" d="M234.2,110.3c-0.2,12.5,0,26.5-0.2,39.1c0,0.5,0,1.1,0,1.6c0,1.2-0.6,2.2-1.5,2.8c-0.3,0.2-0.6,0.3-0.9,0.4
				c-3.5,0.3-3.4-2.4-3.4-4.5c-0.5-9.8-0.2-21.5-0.2-32.7v-2c0-0.9-0.7-1.6-1.6-1.6c-0.2,0-0.5,0.1-0.7,0.2
				c-3.6,1.8-7.1,3.7-10.4,5.5c-5.3,2.9-10.3,5.7-15.6,8.5c-2.4,1.3-4.8,2.2-7.1,2.8c0,0-0.1,0-0.1,0c-5.8,1.3-11.5,0.5-17.5-2.7
				c-9.8-5.2-20-9.9-29.8-15.1c-1.7-0.9-3.7-2.6-4.4-4.3c-0.1-0.3-0.2-0.5-0.2-0.8c-0.1-0.7,0.6-1.6,1.6-2.5c0.9-0.8,2-1.6,2.9-2
				c10.8-5.6,21.7-11,32.6-16.3c1.9-1,4-1.7,6.1-2c0.7-0.1,1.4-0.2,2-0.2c0.1,0,0.1,0,0.2,0c3.5-0.2,7.1,0.5,10.4,2.2
				c11.1,5.4,22,11,33.1,16.4C232.7,104.4,234.2,106.5,234.2,110.3z"/>
			<path class="st5" d="M216.6,135.1c0,1.8-0.1,3.6-0.7,5.1c-0.3,0.7-0.7,1.4-1.3,2c-0.2,0.2-0.3,0.4-0.5,0.5c-2.4,2-6.1,2.8-9,3.7
				c-3.4,0.9-7,1.6-10.5,2c-7,0.8-14.1,0.4-21-1c-3.7-0.8-7.4-1.8-10.9-3.2c-1.2-0.4-2.3-1.1-3.1-2c-0.7-0.8-1.2-1.7-1.4-2.7
				c-0.1-0.2-0.1-0.5-0.2-0.8c-0.2-2.4-0.2-4.8,0.1-7.2c0-0.9,0-1.8,0.1-2.7c0-0.4,0.1-0.8,0.2-1.2c0,0,0,0,0,0
				c0.3-0.9,0.7-1.4,1.6-0.8c1,0.7,2.1,1.4,3.2,2.1c0,0,0,0,0.1,0c3.5,2.2,7,4.1,10.8,5.4c0,0,0,0,0,0c3,1.1,6.1,1.9,9.3,2.3
				c2.8,0.3,5.6,0.4,8.5,0c0.3,0,0.5-0.1,0.8-0.1c2-0.3,3.9-0.7,5.8-1.3c5.4-1.6,10.4-4.3,15-7.6c0.5-0.4,1-0.7,1.5-1.1
				c0.4-0.4,1-0.4,1.4,0c0.2,0.2,0.3,0.5,0.3,0.8C216.5,130,216.6,132.6,216.6,135.1z"/>
			<path class="st6" d="M505.9,161.4l-54,51.2c-0.4,0.3-0.9,0.5-1.4,0.4l-6.5-1c-0.7-0.1-1.3-0.7-1.4-1.4l-0.9-5.6
				c-0.1-0.5,0.1-1,0.5-1.4l52.1-53.1c0.7-0.7,1.7-0.9,2.6-0.7c4.2,1.4,7.7,4.5,9.5,8.6C506.9,159.4,506.7,160.6,505.9,161.4z"/>
			<path class="st7" d="M491.7,150.5l-54.1,50.2c-0.3,0.3-0.7,0.4-1.1,0.4h-6c-0.2,0-0.5-0.2-0.5-0.5c0-0.1,0-0.2,0.1-0.3l53.1-54
				c0.8-0.9,2-1.3,3.2-1.2c3.2,0.2,4.8,1.5,5.6,2.6C492.7,148.5,492.5,149.8,491.7,150.5z"/>
			<path class="st8" d="M511.9,170.4L455.7,224c-0.2,0.2-0.4,0.2-0.6,0c-0.1-0.1-0.1-0.2-0.1-0.3v-5.8c0-0.3,0.1-0.5,0.3-0.7
				l53.9-53.2c1.7-1.7,2.8,3.4,3.1,5.3C512.3,169.7,512.2,170.1,511.9,170.4z"/>
			<path class="st9" d="M449.4,219.7v8.7c0,0.5-0.4,1-0.9,1.1l-15.1,3.9c-0.4,0.1-0.9-0.1-1.1-0.4c-1.3-2.2-6-9.5-10.7-11
				c-0.5-0.2-0.8-0.7-0.7-1.2c0,0,0,0,0,0l4.2-12.9c0.2-0.5,0.6-0.8,1.1-0.8h9c0.5,0,0.9,0.3,1,0.8l1.7,8.2c0.1,0.5,0.4,0.8,0.9,0.9
				l9.8,1.9C449,218.9,449.3,219.2,449.4,219.7z"/>
			<path class="st10" d="M429.3,233.8c-0.1,0.1-0.2,0.2-0.4,0.2l-9.1,2.7c-0.4,0.1-0.9-0.1-1-0.6c0-0.1,0-0.2,0-0.3l1.5-9.7
				c0.1-0.4,0.5-0.7,0.9-0.7c0.1,0,0.3,0.1,0.4,0.2l7.6,7C429.6,232.9,429.6,233.5,429.3,233.8z"/>
			<path class="st11" d="M519.5,157.4c-0.2,0.6-0.8,1-1.5,1h-2.7c-0.6,0-1.2-0.4-1.3-1c-2.2-9-13-14.7-16.2-16.2
				c-0.5-0.3-0.9-0.9-0.8-1.5c0.2-1.3,0.6-3,2-3.6c1.7-0.6,3.5-0.7,5.3-0.1c3.5,0.9,6.5,3.2,9.2,5.5
				C521.8,148.2,520.4,154.7,519.5,157.4z"/>
			<path class="st12" d="M512.4,166.3c-3.5-11.6-13-20.4-24.9-22.9c2-0.4,4-0.4,5.9-0.1c6.5,1,10.6,5.3,12.8,7.7
				c2,2.2,4.6,4.9,5.7,9.3C512.4,162.3,512.5,164.3,512.4,166.3z"/>
			<text transform="matrix(0.78 0 0 1 192.48 236.04)" class="st4 st13 st14 st15">E</text>
			<text transform="matrix(0.78 0 0 1 203.291 236.04)" class="st4 st13 st14 st15">du</text>
			<text transform="matrix(0.78 0 0 1 226.6128 236.04)" class="st4 st13 st14 st15">c</text>
			<text transform="matrix(0.78 0 0 1 236.2461 236.04)" class="st4 st13 st14 st15">ational E</text>
			<text transform="matrix(0.78 0 0 1 318.6997 236.04)" class="st4 st13 st14 st15">x</text>
			<text transform="matrix(0.78 0 0 1 328.3403 236.04)" class="st4 st13 st14 st15">c</text>
			<text transform="matrix(0.78 0 0 1 337.9658 236.04)" class="st4 st13 st14 st15">ellen</text>
			<text transform="matrix(0.78 0 0 1 383.7515 236.04)" class="st4 st13 st14 st15">c</text>
			<text transform="matrix(0.78 0 0 1 393.377 236.04)" class="st4 st13 st14 st15">e</text>
			<line class="st16" x1="193.8" y1="238" x2="401.7" y2="238"/>
			<rect x="193.8" y="237.8" class="st17" width="207.8" height="0.5"/>
		</g>
	</g>
</g>
</svg>
