<svg xmlns="http://www.w3.org/2000/svg" xmlns:xlink="http://www.w3.org/1999/xlink" viewBox="0 0 616.48 333.62"><defs><style>.cls-1{fill:url(#linear-gradient);}.cls-2{fill:none;stroke:#000;stroke-miterlimit:10;}.cls-3{fill:#003cff;}.cls-13,.cls-4{fill:#fa013d;}.cls-5{fill:#2f2f2f;}.cls-6{fill:#edb90f;}.cls-7{fill:#edb007;}.cls-8{fill:#e38c09;}.cls-9{fill:#efa20c;}.cls-10{fill:#070000;}.cls-11{fill:#e02a3f;}.cls-12{fill:#6e6a6b;}.cls-13{font-size:25px;font-family:Calibri-Italic, Calibri;font-style:italic;letter-spacing:0.07em;}.cls-14{letter-spacing:0.08em;}.cls-15{letter-spacing:0.08em;}.cls-16{letter-spacing:0.08em;}.cls-17{letter-spacing:0.06em;}.cls-18{letter-spacing:0.08em;}.cls-19{fill:#01169f;}</style><linearGradient id="linear-gradient" x1="207.84" y1="-19.31" x2="476.65" y2="478.99" gradientUnits="userSpaceOnUse"><stop offset="0" stop-color="#fff"/><stop offset="0.02" stop-color="#f0f1f9"/><stop offset="0.07" stop-color="#bec4e7"/><stop offset="0.13" stop-color="#919ad6"/><stop offset="0.19" stop-color="#6a76c7"/><stop offset="0.26" stop-color="#4958ba"/><stop offset="0.33" stop-color="#2e3fb0"/><stop offset="0.41" stop-color="#1a2da9"/><stop offset="0.49" stop-color="#0b1fa3"/><stop offset="0.6" stop-color="#0317a0"/><stop offset="0.76" stop-color="#00159f"/></linearGradient></defs><g id="Layer_2" data-name="Layer 2"><g id="Layer_1-2" data-name="Layer 1"><path class="cls-1" d="M308.24,0C138,0,0,74.68,0,166.81S138,333.62,308.24,333.62s308.24-74.69,308.24-166.81S478.48,0,308.24,0Zm0,313.12c-149.12,0-270-65.74-270-146.84s120.88-146.84,270-146.84,270,65.74,270,146.84S457.36,313.12,308.24,313.12Z"/><path class="cls-2" d="M182.17,129.37l-40.8-20.73a1.86,1.86,0,0,1,0-3.34l42-20.67a10.24,10.24,0,0,1,5-.09l42.2,19.79a4.38,4.38,0,0,1,2.5,3.85l1,43.36a2.25,2.25,0,0,1-2.25,2.3h-.33a2.26,2.26,0,0,1-2.25-2.17L227.93,115a1.56,1.56,0,0,0-2.27-1.34l-31,15.81a9.25,9.25,0,0,1-4.5,1l-4-.11Z"/><path class="cls-2" d="M159.6,127.29,176.86,136a7.25,7.25,0,0,0,3.26.78h13.6A7.25,7.25,0,0,0,197,136l17.26-8.73a1.1,1.1,0,0,1,1.6,1v12.45a1.57,1.57,0,0,1-1.06,1.49l-14.47,5a15.44,15.44,0,0,1-5.08.86h-17a15.48,15.48,0,0,1-5.21-.9l-13.94-5a1.56,1.56,0,0,1-1.05-1.48V128.27A1.1,1.1,0,0,1,159.6,127.29Z"/><path class="cls-3" d="M142,167.23v36.36h-6.48V179l-2.58,24.55h-4.59l-2.72-24v24H119.1V167.23h9.59q.44,3.27.88,7.73l1.05,9.25,1.71-17Z"/><path class="cls-4" d="M159.26,169.81v4.69h1.92v4.72h-1.92v15.95a10.76,10.76,0,0,0,.24,3.28q.24.33,2,.33v4.81h-2.87a15.63,15.63,0,0,1-3.47-.26,3.5,3.5,0,0,1-1.83-1.19,4.18,4.18,0,0,1-1-2.13,47.47,47.47,0,0,1-.2-5.65V179.22H150.6V174.5h1.53v-4.69Z"/><path class="cls-4" d="M181.88,189.22h-9.2v6.44a8.76,8.76,0,0,0,.23,2.61.85.85,0,0,0,.88.58,1.06,1.06,0,0,0,1.08-.77,10.83,10.83,0,0,0,.27-3v-3.93h6.74v2.2a25.15,25.15,0,0,1-.27,4.24,9.64,9.64,0,0,1-1.28,3.17,6.63,6.63,0,0,1-2.54,2.53,8,8,0,0,1-3.86.84,9.1,9.1,0,0,1-4-.83,6.49,6.49,0,0,1-2.69-2.28,9.27,9.27,0,0,1-1.33-3.19,26.59,26.59,0,0,1-.37-5.06v-8.7a18.46,18.46,0,0,1,.83-6.16,6.69,6.69,0,0,1,2.71-3.46,7.9,7.9,0,0,1,4.33-1.2,8,8,0,0,1,4.94,1.45,7.54,7.54,0,0,1,2.73,3.84,22.59,22.59,0,0,1,.78,6.72Zm-7.13-4.86v-2.17a13.93,13.93,0,0,0-.19-3,.79.79,0,0,0-.79-.67.85.85,0,0,0-.92.57,15.93,15.93,0,0,0-.17,3.09v2.17Z"/><path class="cls-4" d="M203,185h-6.71V181.6a8.47,8.47,0,0,0-.23-2.43.84.84,0,0,0-.84-.64.8.8,0,0,0-.83.56,9.07,9.07,0,0,0-.21,2.51v14.06a6.85,6.85,0,0,0,.31,2.39c.22.54.53.8.94.8a1,1,0,0,0,1-.83,12.52,12.52,0,0,0,.26-3.14v-3.55H203c0,2.38-.08,4.16-.21,5.35a10,10,0,0,1-1.17,3.67,7.09,7.09,0,0,1-2.6,2.83,7.69,7.69,0,0,1-4,.95,7.83,7.83,0,0,1-4.77-1.31,7,7,0,0,1-2.49-3.69,23.84,23.84,0,0,1-.73-6.72v-8.47a20.67,20.67,0,0,1,.59-5.73,7,7,0,0,1,2.56-3.45,7.5,7.5,0,0,1,4.75-1.51,7.61,7.61,0,0,1,4.75,1.5,7.17,7.17,0,0,1,2.63,3.8A25.13,25.13,0,0,1,203,185Z"/><path class="cls-4" d="M215.21,167.23v8.18a6.43,6.43,0,0,1,2-1.62,5,5,0,0,1,2.28-.54,4.53,4.53,0,0,1,3.18,1.21,5,5,0,0,1,1.6,2.8,38.25,38.25,0,0,1,.29,5.78v20.55h-7.11v-21a17,17,0,0,0-.2-3.34.88.88,0,0,0-.91-.74.9.9,0,0,0-.88.76,12.9,12.9,0,0,0-.23,3v21.27H208.1V167.23Z"/><path class="cls-3" d="M267.19,167.23l4.24,36.36h-7.58l-.39-6.53H260.8l-.44,6.53H252.7l3.78-36.36Zm-3.93,23.38q-.56-6.18-1.13-15.27-1.12,10.44-1.42,15.27Z"/><path class="cls-4" d="M292.23,185h-6.71V181.6a8.47,8.47,0,0,0-.23-2.43.85.85,0,0,0-.85-.64.79.79,0,0,0-.82.56,9.07,9.07,0,0,0-.21,2.51v14.06a6.85,6.85,0,0,0,.31,2.39c.21.54.52.8.94.8a1,1,0,0,0,1-.83,12.52,12.52,0,0,0,.26-3.14v-3.55h6.34c0,2.38-.08,4.16-.21,5.35a9.82,9.82,0,0,1-1.18,3.67,7.06,7.06,0,0,1-2.59,2.83,7.69,7.69,0,0,1-4,.95,7.88,7.88,0,0,1-4.78-1.31,7.09,7.09,0,0,1-2.49-3.69,24.22,24.22,0,0,1-.73-6.72v-8.47a20.59,20.59,0,0,1,.6-5.73,7,7,0,0,1,2.55-3.45,8.26,8.26,0,0,1,9.51,0,7.1,7.1,0,0,1,2.62,3.8A24.62,24.62,0,0,1,292.23,185Z"/><path class="cls-4" d="M303.72,185.33h-6.67v-2a17.91,17.91,0,0,1,.62-5.33,7,7,0,0,1,2.51-3.32,9.51,9.51,0,0,1,10.34.2,6.55,6.55,0,0,1,2.2,4,81.2,81.2,0,0,1,.37,9.76v15h-6.92v-2.65a5.74,5.74,0,0,1-1.68,2.39,3.92,3.92,0,0,1-2.46.8,5.15,5.15,0,0,1-3.42-1.34q-1.56-1.33-1.56-5.85v-2.45c0-2.23.27-3.75.83-4.55s1.92-1.76,4.1-2.83,3.58-2,3.75-2.36a8.11,8.11,0,0,0,.24-2.47,10.63,10.63,0,0,0-.27-3.05.93.93,0,0,0-.9-.7.81.81,0,0,0-.9.59,15.06,15.06,0,0,0-.18,3.09Zm2.25,4.09a6.54,6.54,0,0,0-2,2.67,13.54,13.54,0,0,0-.27,3.1,11.33,11.33,0,0,0,.24,3,.92.92,0,0,0,.94.67.82.82,0,0,0,.87-.53,10.52,10.52,0,0,0,.2-2.77Z"/><path class="cls-4" d="M334.74,167.23v36.36h-7.11v-2.16a7.8,7.8,0,0,1-2.15,2,4.52,4.52,0,0,1-2.36.67,4.12,4.12,0,0,1-2.87-1.11,5,5,0,0,1-1.56-2.57,24,24,0,0,1-.34-4.76V181.74a24.6,24.6,0,0,1,.34-4.88,4.81,4.81,0,0,1,1.58-2.52,4.27,4.27,0,0,1,2.94-1.09,5,5,0,0,1,2.42.6,6.46,6.46,0,0,1,2,1.83v-8.45Zm-7.11,14.06a7,7,0,0,0-.22-2.2,1,1,0,0,0-1.73-.06,7.31,7.31,0,0,0-.22,2.26v14.6a8,8,0,0,0,.22,2.39.79.79,0,0,0,.8.57.89.89,0,0,0,.92-.64,12.54,12.54,0,0,0,.23-3.13Z"/><path class="cls-4" d="M356.43,189.22h-9.21v6.44a9.13,9.13,0,0,0,.23,2.61.86.86,0,0,0,.88.58,1.06,1.06,0,0,0,1.08-.77,10.34,10.34,0,0,0,.28-3v-3.93h6.74v2.2a25.15,25.15,0,0,1-.27,4.24,9.86,9.86,0,0,1-1.28,3.17,6.77,6.77,0,0,1-2.54,2.53,8,8,0,0,1-3.87.84,9.13,9.13,0,0,1-4-.83,6.46,6.46,0,0,1-2.68-2.28,9.27,9.27,0,0,1-1.33-3.19,25.78,25.78,0,0,1-.37-5.06v-8.7a18.46,18.46,0,0,1,.83-6.16,6.64,6.64,0,0,1,2.71-3.46,7.9,7.9,0,0,1,4.33-1.2,8,8,0,0,1,4.94,1.45,7.66,7.66,0,0,1,2.73,3.84,22.59,22.59,0,0,1,.78,6.72Zm-7.13-4.86v-2.17a13.93,13.93,0,0,0-.19-3,.8.8,0,0,0-.8-.67.84.84,0,0,0-.91.57,14.79,14.79,0,0,0-.18,3.09v2.17Z"/><path class="cls-4" d="M368.81,173.79l-.13,2.83a6.7,6.7,0,0,1,2-2.53,4.28,4.28,0,0,1,2.6-.84q2.85,0,4.49,3.37a7.53,7.53,0,0,1,2-2.53,4.12,4.12,0,0,1,2.5-.84,4.22,4.22,0,0,1,3,1.12,5.19,5.19,0,0,1,1.52,2.75,29.8,29.8,0,0,1,.33,5.29v21.18h-6.9V184.16a32.11,32.11,0,0,0-.2-4.73c-.14-.6-.45-.9-.94-.9s-.83.29-1,.89a28.27,28.27,0,0,0-.22,4.74v19.43H371V184.66a44.29,44.29,0,0,0-.17-5.26c-.11-.58-.42-.87-.92-.87a1,1,0,0,0-.81.46,2,2,0,0,0-.37,1.12c0,.44,0,1.38,0,2.82v20.66h-6.9v-29.8Z"/><path class="cls-4" d="M407.5,173.79l-2,21.56q-.48,5.11-.8,7a8.5,8.5,0,0,1-1.09,3.08,4.49,4.49,0,0,1-2.1,1.79,11.86,11.86,0,0,1-4.3.57h-4.32V203a6.27,6.27,0,0,0,2.14-.22c.32-.14.47-.46.47-.95,0-.24-.14-1.28-.44-3.12l-3.89-24.93h6.46l2.33,20.12,1.14-20.12Z"/><path class="cls-4" d="M153.9,208.51c-3.6,2.79-6.89,6.14-10.84,8.28-18.6,10-44,2.53-54.45-15.8-7-12.37-5.28-28,4.19-36.88s27.42-10.69,38.17-3.71a25.73,25.73,0,0,1,2.17,1.73c-4.56-.25-9.19-1.28-13.56-.6-15.58,2.42-22.89,17.82-16,32.91,7.9,17.29,27.5,24.14,44.46,15.51,1.62-.82,3.2-1.72,4.8-2.58Z"/><path class="cls-5" d="M228,114.9a1.6,1.6,0,0,0-2.31-1.43c-9.34,4.74-17.48,9.42-26,14-8.35,4.47-16.31,4.59-24.71.13-9.84-5.24-20-9.9-29.84-15.09-2-1-4.27-3.18-4.58-5.1-.21-1.27,2.62-3.56,4.53-4.55,10.79-5.58,21.69-11,32.6-16.3a20.49,20.49,0,0,1,18.76-.09c11.06,5.4,22,11,33.11,16.37,3.17,1.55,4.69,3.71,4.64,7.43-.17,13,0,27.72-.2,40.71a3.34,3.34,0,0,1-2.48,3.18c-3.51.26-3.35-2.36-3.36-4.54C227.6,139.25,228.05,126.74,228,114.9Z"/><path class="cls-5" d="M158.22,127.68c.26-.88.73-1.38,1.6-.79,9.69,6.75,20.51,11.54,32.63,9.79,8.21-1.19,15.74-5.09,22.32-10a1,1,0,0,1,1.68.82c.06,2.54.17,5.08.13,7.63,0,2.91-.2,5.66-2.57,7.69s-6.06,2.84-9,3.66a69.26,69.26,0,0,1-10.5,2,67.13,67.13,0,0,1-21-1,75.44,75.44,0,0,1-10.93-3.16,6.7,6.7,0,0,1-4.69-5.45,46.18,46.18,0,0,1,.06-7.25A18,18,0,0,1,158.22,127.68Z"/><path class="cls-6" d="M505.9,161.37l-54,51.2a1.61,1.61,0,0,1-1.37.43l-6.47-1a1.64,1.64,0,0,1-1.39-1.38l-.88-5.6a1.66,1.66,0,0,1,.45-1.41l52.14-53.07a2.58,2.58,0,0,1,2.58-.67,15.57,15.57,0,0,1,9.5,8.56A2.55,2.55,0,0,1,505.9,161.37Z"/><path class="cls-7" d="M491.71,150.48l-54.12,50.15a1.62,1.62,0,0,1-1.1.43h-6a.45.45,0,0,1-.32-.77l53.09-54a4.14,4.14,0,0,1,3.24-1.23c3.24.24,4.8,1.46,5.56,2.56A2.17,2.17,0,0,1,491.71,150.48Z"/><path class="cls-8" d="M511.89,170.36,455.67,224a.43.43,0,0,1-.73-.31v-5.77a1,1,0,0,1,.31-.73L509.12,164c1.72-1.7,2.8,3.43,3.13,5.29A1.19,1.19,0,0,1,511.89,170.36Z"/><path class="cls-9" d="M449.36,219.7v8.71a1.18,1.18,0,0,1-.88,1.14l-15.14,3.9a1,1,0,0,1-1.09-.44c-1.33-2.2-6.05-9.54-10.68-11a1,1,0,0,1-.67-1.26l4.25-12.92a1.18,1.18,0,0,1,1.12-.81h9a1,1,0,0,1,1,.8l1.67,8.18a1.11,1.11,0,0,0,.89.88l9.79,1.87A1,1,0,0,1,449.36,219.7Z"/><path class="cls-10" d="M428.91,234l-9.1,2.66a.81.81,0,0,1-1-.91l1.54-9.65a.81.81,0,0,1,1.35-.47l7.56,7A.81.81,0,0,1,428.91,234Z"/><path class="cls-11" d="M519.46,157.36a1.56,1.56,0,0,1-1.48,1h-2.7a1.34,1.34,0,0,1-1.32-1c-2.16-9-13-14.7-16.2-16.22a1.4,1.4,0,0,1-.77-1.45c.2-1.35.57-3,1.95-3.57a8.24,8.24,0,0,1,5.26-.12c3.48.94,6.5,3.25,9.24,5.46C521.78,148.2,520.41,154.71,519.46,157.36Z"/><path class="cls-12" d="M512.36,166.32a33,33,0,0,0-24.93-22.86,18.28,18.28,0,0,1,5.94-.09c6.5,1,10.56,5.27,12.84,7.68,2,2.15,4.57,4.88,5.68,9.29A18.06,18.06,0,0,1,512.36,166.32Z"/><text class="cls-13" transform="translate(192.48 236.04) scale(0.78 1)">E<tspan class="cls-14" x="13.86" y="0">du</tspan><tspan class="cls-15" x="43.76" y="0">c</tspan><tspan class="cls-16" x="56.11" y="0">ational E</tspan><tspan class="cls-17" x="161.82" y="0">x</tspan><tspan class="cls-18" x="174.18" y="0">c</tspan><tspan class="cls-14" x="186.52" y="0">ellen</tspan><tspan class="cls-15" x="245.22" y="0">c</tspan><tspan class="cls-14" x="257.56" y="0">e</tspan></text><line class="cls-19" x1="193.83" y1="238.04" x2="401.67" y2="238.04"/><rect class="cls-19" x="193.83" y="237.79" width="207.84" height="0.5"/></g></g></svg>